<?xml version="1.0" encoding="UTF-8"?>
<svg xmlns="http://www.w3.org/2000/svg" width="32" height="32" viewBox="0 0 32 32" shape-rendering="crispEdges">
<title>Small surfer on a wave - 32x32 pixel art</title>
<rect x="13" y="2" width="1" height="1" fill="#774422" fill-opacity="0.510"/>
<rect x="14" y="2" width="1" height="1" fill="#664422"/>
<rect x="15" y="2" width="1" height="1" fill="#332211"/>
<rect x="16" y="2" width="1" height="1" fill="#553322" fill-opacity="0.314"/>
<rect x="17" y="2" width="1" height="1" fill="#663322" fill-opacity="0.545"/>
<rect x="18" y="2" width="1" height="1" fill="#332211" fill-opacity="0.357"/>
<rect x="11" y="3" width="1" height="1" fill="#553322" fill-opacity="0.443"/>
<rect x="12" y="3" width="1" height="1" fill="#664422"/>
<rect x="13" y="3" width="1" height="1" fill="#884422"/>
<rect x="14" y="3" width="1" height="1" fill="#663322"/>
<rect x="15" y="3" width="1" height="1" fill="#774422"/>
<rect x="16" y="3" width="1" height="1" fill="#773322"/>
<rect x="17" y="3" width="1" height="1" fill="#553311"/>
<rect x="18" y="3" width="1" height="1" fill="#442211" fill-opacity="0.424"/>
<rect x="10" y="4" width="1" height="1" fill="#553322" fill-opacity="0.416"/>
<rect x="11" y="4" width="1" height="1" fill="#663322"/>
<rect x="12" y="4" width="1" height="1" fill="#552211"/>
<rect x="13" y="4" width="1" height="1" fill="#553311"/>
<rect x="14" y="4" width="1" height="1" fill="#663322"/>
<rect x="15" y="4" width="3" height="1" fill="#774422"/>
<rect x="18" y="4" width="1" height="1" fill="#884422"/>
<rect x="19" y="4" width="1" height="1" fill="#442211"/>
<rect x="20" y="4" width="1" height="1" fill="#111111" fill-opacity="0.314"/>
<rect x="10" y="5" width="1" height="1" fill="#664422"/>
<rect x="11" y="5" width="1" height="1" fill="#884422"/>
<rect x="12" y="5" width="1" height="1" fill="#774422"/>
<rect x="13" y="5" width="2" height="1" fill="#663311"/>
<rect x="15" y="5" width="1" height="1" fill="#884422"/>
<rect x="16" y="5" width="1" height="1" fill="#553311"/>
<rect x="17" y="5" width="1" height="1" fill="#663322"/>
<rect x="18" y="5" width="1" height="1" fill="#553311"/>
<rect x="19" y="5" width="1" height="1" fill="#442211"/>
<rect x="10" y="6" width="1" height="1" fill="#774422"/>
<rect x="11" y="6" width="2" height="1" fill="#884422"/>
<rect x="13" y="6" width="1" height="1" fill="#553311"/>
<rect x="14" y="6" width="1" height="1" fill="#774411"/>
<rect x="15" y="6" width="1" height="1" fill="#552211"/>
<rect x="16" y="6" width="1" height="1" fill="#663311"/>
<rect x="17" y="6" width="1" height="1" fill="#884422"/>
<rect x="18" y="6" width="2" height="1" fill="#442211"/>
<rect x="20" y="6" width="1" height="1" fill="#332211" fill-opacity="0.314"/>
<rect x="9" y="7" width="1" height="1" fill="#442211" fill-opacity="0.380"/>
<rect x="10" y="7" width="1" height="1" fill="#553311"/>
<rect x="11" y="7" width="2" height="1" fill="#442211"/>
<rect x="13" y="7" width="1" height="1" fill="#884422"/>
<rect x="14" y="7" width="1" height="1" fill="#bb7733"/>
<rect x="15" y="7" width="1" height="1" fill="#dd8844"/>
<rect x="16" y="7" width="1" height="1" fill="#ee9944"/>
<rect x="17" y="7" width="1" height="1" fill="#cc8844"/>
<rect x="18" y="7" width="1" height="1" fill="#774422"/>
<rect x="19" y="7" width="1" height="1" fill="#221111"/>
<rect x="10" y="8" width="1" height="1" fill="#332211"/>
<rect x="11" y="8" width="1" height="1" fill="#664422"/>
<rect x="12" y="8" width="1" height="1" fill="#553311"/>
<rect x="13" y="8" width="1" height="1" fill="#dd9955"/>
<rect x="14" y="8" width="1" height="1" fill="#887766"/>
<rect x="15" y="8" width="1" height="1" fill="#cc9944"/>
<rect x="16" y="8" width="1" height="1" fill="#ffbb66"/>
<rect x="17" y="8" width="1" height="1" fill="#998877"/>
<rect x="18" y="8" width="1" height="1" fill="#774422"/>
<rect x="19" y="8" width="1" height="1" fill="#221111" fill-opacity="0.314"/>
<rect x="10" y="9" width="1" height="1" fill="#221111" fill-opacity="0.380"/>
<rect x="11" y="9" width="1" height="1" fill="#bb6633"/>
<rect x="12" y="9" width="1" height="1" fill="#dd7733"/>
<rect x="13" y="9" width="1" height="1" fill="#eebb66"/>
<rect x="14" y="9" width="1" height="1" fill="#887766"/>
<rect x="15" y="9" width="1" height="1" fill="#cc8844"/>
<rect x="16" y="9" width="1" height="1" fill="#eeaa55"/>
<rect x="17" y="9" width="1" height="1" fill="#cc9966"/>
<rect x="18" y="9" width="1" height="1" fill="#aa6622"/>
<rect x="11" y="10" width="1" height="1" fill="#553311" fill-opacity="0.525"/>
<rect x="12" y="10" width="1" height="1" fill="#884422"/>
<rect x="13" y="10" width="1" height="1" fill="#ee9944"/>
<rect x="14" y="10" width="1" height="1" fill="#ffbb55"/>
<rect x="15" y="10" width="1" height="1" fill="#ee9944"/>
<rect x="16" y="10" width="1" height="1" fill="#dd8844"/>
<rect x="17" y="10" width="1" height="1" fill="#ff9944"/>
<rect x="18" y="10" width="1" height="1" fill="#bb6633" fill-opacity="0.553"/>
<rect x="12" y="11" width="1" height="1" fill="#110000" fill-opacity="0.314"/>
<rect x="13" y="11" width="1" height="1" fill="#995522"/>
<rect x="14" y="11" width="1" height="1" fill="#cc6622"/>
<rect x="15" y="11" width="1" height="1" fill="#cc8833"/>
<rect x="16" y="11" width="2" height="1" fill="#cc7733"/>
<rect x="18" y="11" width="1" height="1" fill="#aa6622" fill-opacity="0.427"/>
<rect x="11" y="12" width="1" height="1" fill="#995522" fill-opacity="0.361"/>
<rect x="12" y="12" width="1" height="1" fill="#ee9944"/>
<rect x="13" y="12" width="1" height="1" fill="#ffaa44"/>
<rect x="14" y="12" width="2" height="1" fill="#dd8833"/>
<rect x="16" y="12" width="2" height="1" fill="#ee9944"/>
<rect x="18" y="12" width="1" height="1" fill="#ffaa44"/>
<rect x="19" y="12" width="1" height="1" fill="#dd9944"/>
<rect x="20" y="12" width="1" height="1" fill="#995522" fill-opacity="0.365"/>
<rect x="9" y="13" width="1" height="1" fill="#bb7733" fill-opacity="0.569"/>
<rect x="10" y="13" width="1" height="1" fill="#cc7733"/>
<rect x="11" y="13" width="1" height="1" fill="#ffaa44"/>
<rect x="12" y="13" width="1" height="1" fill="#dd7733"/>
<rect x="13" y="13" width="1" height="1" fill="#aa5522"/>
<rect x="14" y="13" width="1" height="1" fill="#ffaa55"/>
<rect x="15" y="13" width="1" height="1" fill="#ffbb66"/>
<rect x="16" y="13" width="1" height="1" fill="#ffaa55"/>
<rect x="17" y="13" width="1" height="1" fill="#aa4411"/>
<rect x="18" y="13" width="1" height="1" fill="#aa5511" fill-opacity="0.549"/>
<rect x="19" y="13" width="1" height="1" fill="#ee9944"/>
<rect x="20" y="13" width="1" height="1" fill="#ffaa55"/>
<rect x="21" y="13" width="1" height="1" fill="#cc7733" fill-opacity="0.498"/>
<rect x="8" y="14" width="1" height="1" fill="#aa5522" fill-opacity="0.545"/>
<rect x="9" y="14" width="1" height="1" fill="#ff9944"/>
<rect x="10" y="14" width="1" height="1" fill="#ee9944"/>
<rect x="11" y="14" width="1" height="1" fill="#bb6622" fill-opacity="0.624"/>
<rect x="12" y="14" width="1" height="1" fill="#661100" fill-opacity="0.314"/>
<rect x="13" y="14" width="1" height="1" fill="#002211" fill-opacity="0.314"/>
<rect x="14" y="14" width="1" height="1" fill="#bb7722"/>
<rect x="15" y="14" width="1" height="1" fill="#eeaa44"/>
<rect x="16" y="14" width="1" height="1" fill="#dd9944"/>
<rect x="17" y="14" width="1" height="1" fill="#665522"/>
<rect x="19" y="14" width="1" height="1" fill="#bb6622" fill-opacity="0.553"/>
<rect x="20" y="14" width="1" height="1" fill="#cc7733"/>
<rect x="21" y="14" width="1" height="1" fill="#bb6622"/>
<rect x="9" y="15" width="1" height="1" fill="#995522" fill-opacity="0.471"/>
<rect x="10" y="15" width="1" height="1" fill="#884411" fill-opacity="0.314"/>
<rect x="12" y="15" width="1" height="1" fill="#669944" fill-opacity="0.314"/>
<rect x="13" y="15" width="1" height="1" fill="#338833"/>
<rect x="14" y="15" width="1" height="1" fill="#88bb88"/>
<rect x="15" y="15" width="1" height="1" fill="#88aa77"/>
<rect x="16" y="15" width="1" height="1" fill="#228822"/>
<rect x="17" y="15" width="1" height="1" fill="#117733"/>
<rect x="18" y="15" width="1" height="1" fill="#115522" fill-opacity="0.471"/>
<rect x="22" y="15" width="1" height="1" fill="#eeeeee" fill-opacity="0.314"/>
<rect x="24" y="15" width="1" height="1" fill="#ffffff" fill-opacity="0.314"/>
<rect x="12" y="16" width="1" height="1" fill="#669933"/>
<rect x="13" y="16" width="1" height="1" fill="#88dd55"/>
<rect x="14" y="16" width="1" height="1" fill="#66aa77"/>
<rect x="15" y="16" width="1" height="1" fill="#77aa77"/>
<rect x="16" y="16" width="2" height="1" fill="#66bb44"/>
<rect x="18" y="16" width="1" height="1" fill="#004411" fill-opacity="0.427"/>
<rect x="19" y="16" width="1" height="1" fill="#ffffff" fill-opacity="0.314"/>
<rect x="20" y="16" width="1" height="1" fill="#ffffff" fill-opacity="0.467"/>
<rect x="21" y="16" width="2" height="1" fill="#ffffff"/>
<rect x="23" y="16" width="1" height="1" fill="#eeffff"/>
<rect x="24" y="16" width="1" height="1" fill="#ffffff"/>
<rect x="25" y="16" width="1" height="1" fill="#ffffff" fill-opacity="0.541"/>
<rect x="27" y="16" width="1" height="1" fill="#ffffff" fill-opacity="0.314"/>
<rect x="11" y="17" width="1" height="1" fill="#bb6633" fill-opacity="0.533"/>
<rect x="12" y="17" width="1" height="1" fill="#dd9944"/>
<rect x="13" y="17" width="1" height="1" fill="#447722"/>
<rect x="14" y="17" width="1" height="1" fill="#116622"/>
<rect x="15" y="17" width="1" height="1" fill="#227733"/>
<rect x="16" y="17" width="1" height="1" fill="#77bb44"/>
<rect x="17" y="17" width="1" height="1" fill="#66aa33"/>
<rect x="18" y="17" width="1" height="1" fill="#558866" fill-opacity="0.588"/>
<rect x="19" y="17" width="1" height="1" fill="#ffffff"/>
<rect x="20" y="17" width="1" height="1" fill="#ddffff"/>
<rect x="21" y="17" width="1" height="1" fill="#88dddd"/>
<rect x="22" y="17" width="1" height="1" fill="#cceeee"/>
<rect x="23" y="17" width="3" height="1" fill="#ffffff"/>
<rect x="26" y="17" width="1" height="1" fill="#ddeeff"/>
<rect x="27" y="17" width="1" height="1" fill="#ffffee" fill-opacity="0.345"/>
<rect x="11" y="18" width="1" height="1" fill="#995522" fill-opacity="0.314"/>
<rect x="12" y="18" width="1" height="1" fill="#ff9944"/>
<rect x="13" y="18" width="1" height="1" fill="#886633"/>
<rect x="14" y="18" width="1" height="1" fill="#4499cc"/>
<rect x="15" y="18" width="1" height="1" fill="#447777"/>
<rect x="16" y="18" width="1" height="1" fill="#bb7722"/>
<rect x="17" y="18" width="1" height="1" fill="#997722"/>
<rect x="18" y="18" width="1" height="1" fill="#559999"/>
<rect x="19" y="18" width="1" height="1" fill="#3399bb"/>
<rect x="20" y="18" width="1" height="1" fill="#0077aa"/>
<rect x="21" y="18" width="1" height="1" fill="#0088aa"/>
<rect x="22" y="18" width="1" height="1" fill="#66bbcc"/>
<rect x="23" y="18" width="1" height="1" fill="#bbddee"/>
<rect x="24" y="18" width="1" height="1" fill="#66bbcc"/>
<rect x="25" y="18" width="1" height="1" fill="#ffffff"/>
<rect x="26" y="18" width="1" height="1" fill="#eeffff"/>
<rect x="27" y="18" width="1" height="1" fill="#ffffff"/>
<rect x="28" y="18" width="2" height="1" fill="#eeffff" fill-opacity="0.314"/>
<rect x="10" y="19" width="1" height="1" fill="#661100" fill-opacity="0.314"/>
<rect x="11" y="19" width="1" height="1" fill="#995522" fill-opacity="0.412"/>
<rect x="12" y="19" width="1" height="1" fill="#ee8833"/>
<rect x="13" y="19" width="1" height="1" fill="#bb6633"/>
<rect x="14" y="19" width="1" height="1" fill="#999999"/>
<rect x="15" y="19" width="1" height="1" fill="#aaaa77"/>
<rect x="16" y="19" width="1" height="1" fill="#bb8855"/>
<rect x="17" y="19" width="1" height="1" fill="#ff9944"/>
<rect x="18" y="19" width="1" height="1" fill="#aa6633"/>
<rect x="19" y="19" width="1" height="1" fill="#227788"/>
<rect x="20" y="19" width="1" height="1" fill="#007799"/>
<rect x="21" y="19" width="1" height="1" fill="#0088aa"/>
<rect x="22" y="19" width="1" height="1" fill="#1188aa"/>
<rect x="23" y="19" width="1" height="1" fill="#33aabb"/>
<rect x="24" y="19" width="1" height="1" fill="#3399bb"/>
<rect x="25" y="19" width="1" height="1" fill="#99ccdd"/>
<rect x="26" y="19" width="3" height="1" fill="#ffffff"/>
<rect x="29" y="19" width="1" height="1" fill="#eeffff" fill-opacity="0.373"/>
<rect x="7" y="20" width="1" height="1" fill="#994422" fill-opacity="0.314"/>
<rect x="8" y="20" width="1" height="1" fill="#bb8866" fill-opacity="0.553"/>
<rect x="9" y="20" width="1" height="1" fill="#ccbb88"/>
<rect x="10" y="20" width="1" height="1" fill="#ccaa88"/>
<rect x="11" y="20" width="1" height="1" fill="#bb7733"/>
<rect x="12" y="20" width="1" height="1" fill="#dd8844"/>
<rect x="13" y="20" width="1" height="1" fill="#aa7733"/>
<rect x="14" y="20" width="2" height="1" fill="#eebb66"/>
<rect x="16" y="20" width="1" height="1" fill="#bb7733"/>
<rect x="17" y="20" width="1" height="1" fill="#dd9944"/>
<rect x="18" y="20" width="1" height="1" fill="#ee8833"/>
<rect x="19" y="20" width="1" height="1" fill="#bb8855"/>
<rect x="20" y="20" width="1" height="1" fill="#1188aa"/>
<rect x="21" y="20" width="2" height="1" fill="#0088aa"/>
<rect x="23" y="20" width="1" height="1" fill="#2299bb"/>
<rect x="24" y="20" width="1" height="1" fill="#3399bb"/>
<rect x="25" y="20" width="1" height="1" fill="#0088aa"/>
<rect x="26" y="20" width="1" height="1" fill="#99ccdd"/>
<rect x="27" y="20" width="1" height="1" fill="#eeffff"/>
<rect x="28" y="20" width="1" height="1" fill="#ffffff"/>
<rect x="29" y="20" width="1" height="1" fill="#eeffff"/>
<rect x="5" y="21" width="1" height="1" fill="#bb9966" fill-opacity="0.353"/>
<rect x="6" y="21" width="1" height="1" fill="#ccbb77"/>
<rect x="7" y="21" width="1" height="1" fill="#eecc99"/>
<rect x="8" y="21" width="1" height="1" fill="#ffddaa"/>
<rect x="9" y="21" width="1" height="1" fill="#ffcc99"/>
<rect x="10" y="21" width="1" height="1" fill="#ffaa66"/>
<rect x="11" y="21" width="1" height="1" fill="#cc6622"/>
<rect x="12" y="21" width="1" height="1" fill="#cc6633"/>
<rect x="13" y="21" width="1" height="1" fill="#ee9955"/>
<rect x="14" y="21" width="1" height="1" fill="#eeaa66"/>
<rect x="15" y="21" width="1" height="1" fill="#ffcc99"/>
<rect x="16" y="21" width="1" height="1" fill="#ddbb77"/>
<rect x="17" y="21" width="1" height="1" fill="#cc7733"/>
<rect x="18" y="21" width="1" height="1" fill="#cc9966"/>
<rect x="19" y="21" width="1" height="1" fill="#77aaaa"/>
<rect x="20" y="21" width="2" height="1" fill="#1188aa"/>
<rect x="22" y="21" width="1" height="1" fill="#0099bb"/>
<rect x="23" y="21" width="2" height="1" fill="#0088aa"/>
<rect x="25" y="21" width="1" height="1" fill="#1199bb"/>
<rect x="26" y="21" width="1" height="1" fill="#bbdddd"/>
<rect x="27" y="21" width="2" height="1" fill="#ffffff"/>
<rect x="29" y="21" width="1" height="1" fill="#ffffff" fill-opacity="0.553"/>
<rect x="30" y="21" width="1" height="1" fill="#ffffff" fill-opacity="0.396"/>
<rect x="4" y="22" width="1" height="1" fill="#993311" fill-opacity="0.314"/>
<rect x="5" y="22" width="1" height="1" fill="#ffaa66"/>
<rect x="6" y="22" width="1" height="1" fill="#ffbb66"/>
<rect x="7" y="22" width="1" height="1" fill="#ff9955"/>
<rect x="8" y="22" width="2" height="1" fill="#ffaa66"/>
<rect x="10" y="22" width="1" height="1" fill="#ffcc99"/>
<rect x="11" y="22" width="1" height="1" fill="#ffddaa"/>
<rect x="12" y="22" width="1" height="1" fill="#ffeebb"/>
<rect x="13" y="22" width="1" height="1" fill="#ffffbb"/>
<rect x="14" y="22" width="1" height="1" fill="#ffeebb"/>
<rect x="15" y="22" width="1" height="1" fill="#ffcc99"/>
<rect x="16" y="22" width="1" height="1" fill="#ee9966"/>
<rect x="17" y="22" width="1" height="1" fill="#cc9977"/>
<rect x="18" y="22" width="1" height="1" fill="#66bbcc"/>
<rect x="19" y="22" width="3" height="1" fill="#0088aa"/>
<rect x="22" y="22" width="1" height="1" fill="#11aabb"/>
<rect x="23" y="22" width="1" height="1" fill="#0088aa"/>
<rect x="24" y="22" width="1" height="1" fill="#1199bb"/>
<rect x="25" y="22" width="1" height="1" fill="#66bbcc"/>
<rect x="26" y="22" width="1" height="1" fill="#4499bb"/>
<rect x="27" y="22" width="1" height="1" fill="#88ccdd"/>
<rect x="28" y="22" width="1" height="1" fill="#ffffff"/>
<rect x="29" y="22" width="1" height="1" fill="#eeffff"/>
<rect x="30" y="22" width="1" height="1" fill="#eeffff" fill-opacity="0.314"/>
<rect x="5" y="23" width="1" height="1" fill="#bb3300" fill-opacity="0.498"/>
<rect x="6" y="23" width="1" height="1" fill="#dd5511"/>
<rect x="7" y="23" width="1" height="1" fill="#dd8844"/>
<rect x="8" y="23" width="1" height="1" fill="#ffbb77"/>
<rect x="9" y="23" width="1" height="1" fill="#ffcc88"/>
<rect x="10" y="23" width="2" height="1" fill="#ffbb77"/>
<rect x="12" y="23" width="1" height="1" fill="#ee9955"/>
<rect x="13" y="23" width="1" height="1" fill="#dd7744"/>
<rect x="14" y="23" width="1" height="1" fill="#cc7744"/>
<rect x="15" y="23" width="1" height="1" fill="#cc8866"/>
<rect x="16" y="23" width="1" height="1" fill="#aa9999"/>
<rect x="17" y="23" width="1" height="1" fill="#4499bb"/>
<rect x="18" y="23" width="3" height="1" fill="#0088aa"/>
<rect x="21" y="23" width="1" height="1" fill="#22aacc"/>
<rect x="22" y="23" width="1" height="1" fill="#22aabb"/>
<rect x="23" y="23" width="1" height="1" fill="#0088aa"/>
<rect x="24" y="23" width="1" height="1" fill="#00aabb"/>
<rect x="25" y="23" width="1" height="1" fill="#1188aa"/>
<rect x="26" y="23" width="1" height="1" fill="#007799"/>
<rect x="27" y="23" width="1" height="1" fill="#99ccdd"/>
<rect x="28" y="23" width="2" height="1" fill="#eeffff"/>
<rect x="30" y="23" width="1" height="1" fill="#eeeeee" fill-opacity="0.345"/>
<rect x="6" y="24" width="1" height="1" fill="#bbaaaa" fill-opacity="0.314"/>
<rect x="7" y="24" width="1" height="1" fill="#dd6644" fill-opacity="0.337"/>
<rect x="8" y="24" width="1" height="1" fill="#bb5522" fill-opacity="0.545"/>
<rect x="9" y="24" width="1" height="1" fill="#554444"/>
<rect x="10" y="24" width="1" height="1" fill="#555555"/>
<rect x="11" y="24" width="1" height="1" fill="#554444"/>
<rect x="12" y="24" width="1" height="1" fill="#776666"/>
<rect x="13" y="24" width="1" height="1" fill="#aabbcc"/>
<rect x="14" y="24" width="1" height="1" fill="#aaccdd"/>
<rect x="15" y="24" width="1" height="1" fill="#66bbdd"/>
<rect x="16" y="24" width="1" height="1" fill="#1188aa"/>
<rect x="17" y="24" width="1" height="1" fill="#0088aa"/>
<rect x="18" y="24" width="1" height="1" fill="#22aabb"/>
<rect x="19" y="24" width="1" height="1" fill="#0088aa"/>
<rect x="20" y="24" width="1" height="1" fill="#22aacc"/>
<rect x="21" y="24" width="1" height="1" fill="#44cccc"/>
<rect x="22" y="24" width="3" height="1" fill="#0099bb"/>
<rect x="25" y="24" width="1" height="1" fill="#0088aa"/>
<rect x="26" y="24" width="1" height="1" fill="#1188aa"/>
<rect x="27" y="24" width="1" height="1" fill="#66aacc"/>
<rect x="28" y="24" width="1" height="1" fill="#88bbcc" fill-opacity="0.467"/>
<rect x="29" y="24" width="1" height="1" fill="#eeffff" fill-opacity="0.314"/>
<rect x="5" y="25" width="1" height="1" fill="#ffffff" fill-opacity="0.498"/>
<rect x="6" y="25" width="1" height="1" fill="#eeffff"/>
<rect x="7" y="25" width="1" height="1" fill="#66bbdd"/>
<rect x="8" y="25" width="1" height="1" fill="#1188bb"/>
<rect x="9" y="25" width="1" height="1" fill="#0077aa"/>
<rect x="10" y="25" width="1" height="1" fill="#1188bb"/>
<rect x="11" y="25" width="1" height="1" fill="#2299cc"/>
<rect x="12" y="25" width="1" height="1" fill="#77ccee"/>
<rect x="13" y="25" width="1" height="1" fill="#55aacc"/>
<rect x="14" y="25" width="1" height="1" fill="#1188aa"/>
<rect x="15" y="25" width="1" height="1" fill="#0077aa"/>
<rect x="16" y="25" width="1" height="1" fill="#0088aa"/>
<rect x="17" y="25" width="1" height="1" fill="#0099bb"/>
<rect x="18" y="25" width="1" height="1" fill="#1199bb"/>
<rect x="19" y="25" width="1" height="1" fill="#33bbcc"/>
<rect x="20" y="25" width="1" height="1" fill="#44cccc"/>
<rect x="21" y="25" width="1" height="1" fill="#1199bb"/>
<rect x="22" y="25" width="1" height="1" fill="#11aabb"/>
<rect x="23" y="25" width="1" height="1" fill="#0099bb"/>
<rect x="24" y="25" width="2" height="1" fill="#0088aa"/>
<rect x="26" y="25" width="1" height="1" fill="#3399bb"/>
<rect x="27" y="25" width="1" height="1" fill="#0088aa"/>
<rect x="2" y="26" width="1" height="1" fill="#ddeeee" fill-opacity="0.341"/>
<rect x="3" y="26" width="1" height="1" fill="#cceeee"/>
<rect x="4" y="26" width="1" height="1" fill="#66bbcc"/>
<rect x="5" y="26" width="1" height="1" fill="#33aacc"/>
<rect x="6" y="26" width="1" height="1" fill="#2299bb"/>
<rect x="7" y="26" width="2" height="1" fill="#1199bb"/>
<rect x="9" y="26" width="1" height="1" fill="#0099bb"/>
<rect x="10" y="26" width="1" height="1" fill="#0088bb"/>
<rect x="11" y="26" width="1" height="1" fill="#1188aa"/>
<rect x="12" y="26" width="1" height="1" fill="#007799"/>
<rect x="13" y="26" width="1" height="1" fill="#0099aa"/>
<rect x="14" y="26" width="2" height="1" fill="#0099bb"/>
<rect x="16" y="26" width="1" height="1" fill="#1199bb"/>
<rect x="17" y="26" width="1" height="1" fill="#55cccc"/>
<rect x="18" y="26" width="1" height="1" fill="#44cccc"/>
<rect x="19" y="26" width="1" height="1" fill="#44bbcc"/>
<rect x="20" y="26" width="1" height="1" fill="#0099bb"/>
<rect x="21" y="26" width="1" height="1" fill="#1199bb"/>
<rect x="22" y="26" width="1" height="1" fill="#22bbcc"/>
<rect x="23" y="26" width="1" height="1" fill="#0099bb"/>
<rect x="24" y="26" width="1" height="1" fill="#0088bb"/>
<rect x="25" y="26" width="2" height="1" fill="#0088aa"/>
<rect x="27" y="26" width="1" height="1" fill="#0099bb"/>
<rect x="1" y="27" width="1" height="1" fill="#22aabb"/>
<rect x="2" y="27" width="1" height="1" fill="#33aacc"/>
<rect x="3" y="27" width="1" height="1" fill="#1199bb"/>
<rect x="4" y="27" width="1" height="1" fill="#00aacc"/>
<rect x="5" y="27" width="1" height="1" fill="#22bbcc"/>
<rect x="6" y="27" width="2" height="1" fill="#33bbcc"/>
<rect x="8" y="27" width="2" height="1" fill="#0099bb"/>
<rect x="10" y="27" width="1" height="1" fill="#0088bb" fill-opacity="0.416"/>
<rect x="11" y="27" width="1" height="1" fill="#00aabb" fill-opacity="0.455"/>
<rect x="12" y="27" width="1" height="1" fill="#00aacc"/>
<rect x="13" y="27" width="1" height="1" fill="#0099bb"/>
<rect x="14" y="27" width="1" height="1" fill="#22aabb"/>
<rect x="15" y="27" width="1" height="1" fill="#44bbcc"/>
<rect x="16" y="27" width="1" height="1" fill="#44cccc"/>
<rect x="17" y="27" width="1" height="1" fill="#33bbcc"/>
<rect x="18" y="27" width="1" height="1" fill="#11aacc"/>
<rect x="19" y="27" width="2" height="1" fill="#0099bb"/>
<rect x="21" y="27" width="1" height="1" fill="#11aacc"/>
<rect x="22" y="27" width="1" height="1" fill="#00aabb"/>
<rect x="23" y="27" width="1" height="1" fill="#0099bb"/>
<rect x="24" y="27" width="1" height="1" fill="#0088bb"/>
<rect x="25" y="27" width="2" height="1" fill="#0099bb"/>
<rect x="27" y="27" width="1" height="1" fill="#0088bb"/>
<rect x="28" y="27" width="1" height="1" fill="#0099bb" fill-opacity="0.596"/>
<rect x="29" y="27" width="1" height="1" fill="#0099bb" fill-opacity="0.314"/>
<rect x="3" y="28" width="1" height="1" fill="#00aacc" fill-opacity="0.318"/>
<rect x="4" y="28" width="1" height="1" fill="#22bbcc" fill-opacity="0.580"/>
<rect x="5" y="28" width="1" height="1" fill="#33ccdd"/>
<rect x="6" y="28" width="1" height="1" fill="#11aabb"/>
<rect x="7" y="28" width="1" height="1" fill="#0099bb"/>
<rect x="8" y="28" width="1" height="1" fill="#00aabb" fill-opacity="0.384"/>
<rect x="9" y="28" width="1" height="1" fill="#00aabb" fill-opacity="0.337"/>
<rect x="10" y="28" width="1" height="1" fill="#11bbcc" fill-opacity="0.506"/>
<rect x="11" y="28" width="1" height="1" fill="#11aacc"/>
<rect x="12" y="28" width="1" height="1" fill="#00aabb"/>
<rect x="13" y="28" width="1" height="1" fill="#11aabb"/>
<rect x="14" y="28" width="1" height="1" fill="#44bbcc"/>
<rect x="15" y="28" width="1" height="1" fill="#22bbcc"/>
<rect x="16" y="28" width="2" height="1" fill="#00aabb"/>
<rect x="18" y="28" width="1" height="1" fill="#00aabb" fill-opacity="0.380"/>
<rect x="19" y="28" width="1" height="1" fill="#11aacc"/>
<rect x="20" y="28" width="1" height="1" fill="#00aacc"/>
<rect x="21" y="28" width="5" height="1" fill="#0099bb"/>
<rect x="26" y="28" width="1" height="1" fill="#0099bb" fill-opacity="0.533"/>
<rect x="27" y="28" width="1" height="1" fill="#0099bb" fill-opacity="0.314"/>
</svg>
